HIERARCHY
ROOT Hips
{
	OFFSET 0.000000 0.000000 0.000000
	CHANNELS 6 Xposition Yposition Zposition Zrotation Yrotation Xrotation 
	JOINT LHipJoint
	{
		OFFSET 0.000000 0.000000 0.000000
		CHANNELS 3 Zrotation Yrotation Xrotation
		JOINT LeftUpLeg
		{
			OFFSET 1.363060 -1.794630 0.839290
			CHANNELS 3 Zrotation Yrotation Xrotation
			JOINT LeftLeg
			{
				OFFSET 2.448110 -6.726130 0.000000
				CHANNELS 3 Zrotation Yrotation Xrotation
				JOINT LeftFoot
				{
					OFFSET 2.562200 -7.039590 0.000000
					CHANNELS 3 Zrotation Yrotation Xrotation
					JOINT LeftToeBase
					{
						OFFSET 0.157640 -0.433110 2.322550
						CHANNELS 3 Zrotation Yrotation Xrotation
						End Site
						{
							OFFSET 0.000000 0.000000 0.000000
						}
					}
				}
			}
		}
	}
	JOINT RHipJoint
	{
		OFFSET 0.000000 0.000000 0.000000
		CHANNELS 3 Zrotation Yrotation Xrotation
		JOINT RightUpLeg
		{
			OFFSET -1.305520 -1.794630 0.839290
			CHANNELS 3 Zrotation Yrotation Xrotation
			JOINT RightLeg
			{
				OFFSET -2.542530 -6.985550 0.000000
				CHANNELS 3 Zrotation Yrotation Xrotation
				JOINT RightFoot
				{
					OFFSET -2.568260 -7.056230 0.000000
					CHANNELS 3 Zrotation Yrotation Xrotation
					JOINT RightToeBase
					{
						OFFSET -0.164730 -0.452590 2.363150
						CHANNELS 3 Zrotation Yrotation Xrotation
						End Site
						{
							OFFSET 0.000000 0.000000 0.000000
						}
					}
				}
			}
		}
	}
	JOINT LowerBack
	{
		OFFSET 0.000000 0.000000 0.000000
		CHANNELS 3 Zrotation Yrotation Xrotation
		JOINT Spine
		{
			OFFSET 0.028270 2.035590 -0.193380
			CHANNELS 3 Zrotation Yrotation Xrotation
			JOINT Spine1
			{
				OFFSET 0.056720 2.048850 -0.042750
				CHANNELS 3 Zrotation Yrotation Xrotation
				JOINT Neck
				{
					OFFSET 0.000000 0.000000 0.000000
					CHANNELS 3 Zrotation Yrotation Xrotation
					JOINT Neck1
					{
						OFFSET -0.054170 1.746240 0.172020
						CHANNELS 3 Zrotation Yrotation Xrotation
						JOINT Head
						{
							OFFSET 0.104070 1.761360 -0.123970
							CHANNELS 3 Zrotation Yrotation Xrotation
							End Site
							{
								OFFSET 0.000000 0.000000 0.000000
							}
						}
					}
				}
				JOINT LeftShoulder
				{
					OFFSET 0.000000 0.000000 0.000000
					CHANNELS 3 Zrotation Yrotation Xrotation
					JOINT LeftArm
					{
						OFFSET 3.362410 1.200890 -0.311210
						CHANNELS 3 Zrotation Yrotation Xrotation
						JOINT LeftForeArm
						{
							OFFSET 4.983000 -0.000000 -0.000000
							CHANNELS 3 Zrotation Yrotation Xrotation
							JOINT LeftHand
							{
								OFFSET 3.483560 -0.000000 -0.000000
								CHANNELS 3 Zrotation Yrotation Xrotation
								JOINT LeftFingerBase
								{
									OFFSET 0.000000 0.000000 0.000000
									CHANNELS 3 Zrotation Yrotation Xrotation
									JOINT LeftHandIndex1
									{
										OFFSET 0.715260 -0.000000 -0.000000
										CHANNELS 3 Zrotation Yrotation Xrotation
										End Site
										{
											OFFSET 0.000000 0.000000 0.000000
										}
									}
								}
								JOINT LThumb
								{
									OFFSET 0.000000 0.000000 0.000000
									CHANNELS 3 Zrotation Yrotation Xrotation
									End Site
									{
										OFFSET 0.000000 0.000000 0.000000
									}
								}
							}
						}
					}
				}
				JOINT RightShoulder
				{
					OFFSET 0.000000 0.000000 0.000000
					CHANNELS 3 Zrotation Yrotation Xrotation
					JOINT RightArm
					{
						OFFSET -3.136600 1.374050 -0.404650
						CHANNELS 3 Zrotation Yrotation Xrotation
						JOINT RightForeArm
						{
							OFFSET -5.241900 -0.000000 -0.000000
							CHANNELS 3 Zrotation Yrotation Xrotation
							JOINT RightHand
							{
								OFFSET -3.444170 -0.000000 -0.000000
								CHANNELS 3 Zrotation Yrotation Xrotation
								JOINT RightFingerBase
								{
									OFFSET 0.000000 0.000000 0.000000
									CHANNELS 3 Zrotation Yrotation Xrotation
									JOINT RightHandIndex1
									{
										OFFSET -0.622530 -0.000000 -0.000000
										CHANNELS 3 Zrotation Yrotation Xrotation
										End Site
										{
											OFFSET 0.000000 0.000000 0.000000
										}
									}
								}
								JOINT RThumb
								{
									OFFSET 0.000000 0.000000 0.000000
									CHANNELS 3 Zrotation Yrotation Xrotation
									End Site
									{
										OFFSET 0.000000 0.000000 0.000000
									}
								}
							}
						}
					}
				}
			}
		}
	}
}
MOTION
Frames: 7
Frame Time: 0.008333
-4.172821 17.331326 0.500350 -4.077789 -76.576749 17.227441 -10.046768 -0.308376 1.023377 -8.709006 -8.365901 -17.462208 -1.585930 -0.474985 11.331125 1.391680 8.201803 -5.514339 0.416101 -0.000000 -33.886499 9.832899 -0.275798 -3.741418 7.195629 -8.710246 -31.543320 0.096436 -3.848145 48.272364 -1.820497 -9.315390 9.984426 -2.876700 -0.000000 -79.510800 -9.252161 -1.160772 5.612059 -3.061066 -0.741744 -2.038328 -8.233233 -0.808238 -0.614004 10.757180 -0.345968 0.144746 -4.157109 -0.365414 1.793121 0.000000 0.000000 0.000000 -2.963223 -6.925347 2.553555 -56.485078 -16.202041 10.181469 -4.142062 -16.752053 0.003109 2.926179 -2.834998 -0.076730 -0.116314 0.078060 -0.000000 0.000000 0.000000 0.000000 0.000000 0.000000 0.000000 18.048957 -0.749044 0.678856 72.997175 5.167740 -0.426924 2.289597 22.692811 0.005756 -2.575281 11.559010 -0.267587 0.048431 -0.108118 0.000000 0.000000 0.000000 0.000000 0.000000 0.000000 0.000000 
-4.159048 17.330357 0.529532 -5.107496 -76.262400 17.903372 -10.081083 -0.359929 0.956409 -8.534947 -8.352541 -17.172846 -1.557331 -0.449814 11.614825 1.381412 8.108793 -5.684300 0.376699 0.000000 -33.905400 9.879844 -0.180757 -3.817443 7.176646 -8.859640 -32.899324 -0.112481 -4.026704 50.852369 -1.856546 -9.254724 12.471891 -3.113200 0.000000 -79.543400 -9.157170 -1.194092 5.786353 -3.048443 -0.779285 -2.002990 -8.272930 -0.842351 -0.632145 10.803300 -0.342885 0.205892 -4.157059 -0.365461 1.807269 0.000000 0.000000 0.000000 -2.991264 -7.132635 2.569865 -56.369482 -16.916468 10.347356 -4.135557 -16.870003 0.002924 2.893387 -2.804215 -0.075218 -0.116899 0.082441 -0.000000 0.000000 0.000000 0.000000 0.000000 0.000000 0.000000 18.085047 -0.781550 0.688115 73.032133 4.760753 -0.675866 2.300423 22.462793 0.005870 -2.484667 11.537524 -0.257793 0.047854 -0.105893 0.000000 0.000000 0.000000 0.000000 0.000000 0.000000 0.000000 
-4.143367 17.329471 0.558383 -6.174975 -75.950489 18.611283 -10.116623 -0.418105 0.880577 -8.340374 -8.346695 -16.884667 -1.524073 -0.422171 11.921478 1.375661 8.042726 -5.859829 0.338300 -0.000000 -33.923601 9.913099 -0.069597 -3.894532 7.174576 -8.982221 -34.273609 -0.306458 -4.189010 53.384825 -1.914495 -9.225571 15.025440 -3.354100 0.000000 -79.233400 -9.034616 -1.232012 5.976993 -3.030288 -0.822380 -1.964832 -8.314545 -0.881918 -0.653189 10.845120 -0.332575 0.273944 -4.158849 -0.365645 1.823108 0.000000 0.000000 0.000000 -3.031815 -7.354971 2.588604 -56.232313 -17.597357 10.543915 -4.125806 -17.048786 0.002772 2.876954 -2.797151 -0.074704 -0.117428 0.086703 0.000000 0.000000 0.000000 0.000000 0.000000 0.000000 0.000000 18.124044 -0.810862 0.698590 73.068762 4.365853 -0.935732 2.312251 22.229251 0.005984 -2.386671 11.512778 -0.247100 0.047259 -0.103728 0.000000 0.000000 0.000000 0.000000 0.000000 0.000000 0.000000 
-4.125858 17.328805 0.586941 -7.281499 -75.640362 19.353327 -10.153445 -0.481951 0.797544 -8.124060 -8.351387 -16.595910 -1.486122 -0.392127 12.244867 1.374239 8.003676 -6.036731 0.301499 0.000000 -33.943400 9.932073 0.055150 -3.975294 7.190562 -9.087549 -35.663095 -0.479940 -4.338491 55.858472 -1.986813 -9.207103 17.574629 -3.588800 -0.000000 -78.625700 -8.881740 -1.275084 6.184187 -3.005978 -0.871548 -1.922431 -8.358204 -0.927133 -0.671500 10.881589 -0.317408 0.343167 -4.162189 -0.365870 1.839009 0.000000 0.000000 0.000000 -3.091847 -7.558450 2.609533 -56.070763 -18.289642 10.794335 -4.114563 -17.258652 0.002653 2.884929 -2.820112 -0.075590 -0.118051 0.090946 0.000000 0.000000 0.000000 0.000000 0.000000 0.000000 0.000000 18.164720 -0.839089 0.707305 73.107309 3.991822 -1.208562 2.324978 21.989620 0.006093 -2.286651 11.485383 -0.236307 0.046688 -0.101611 0.000000 0.000000 0.000000 0.000000 0.000000 0.000000 0.000000 
-4.106660 17.328466 0.615200 -8.424060 -75.330002 20.126804 -10.191482 -0.550087 0.709696 -7.885677 -8.369631 -16.303830 -1.443584 -0.360032 12.576045 1.376887 7.991849 -6.208908 0.267001 0.000000 -33.969000 9.937243 0.190000 -4.061575 7.223783 -9.186083 -37.065868 -0.630386 -4.479530 58.262102 -2.064934 -9.177951 20.042769 -3.803400 0.000000 -77.843100 -8.699445 -1.322171 6.405971 -2.975728 -0.925662 -1.878645 -8.402450 -0.977513 -0.696471 10.912215 -0.294245 0.423597 -4.167137 -0.366276 1.857944 0.000000 0.000000 0.000000 -3.156010 -7.801374 2.631868 -55.898716 -18.912159 11.016514 -4.098189 -17.533176 0.002543 2.914821 -2.870040 -0.077776 -0.118458 0.095123 0.000000 0.000000 0.000000 0.000000 0.000000 0.000000 0.000000 18.204122 -0.864723 0.719320 73.148377 3.630100 -1.502083 2.338510 21.741254 0.006197 -2.189178 11.454089 -0.225714 0.046169 -0.099594 0.000000 0.000000 0.000000 0.000000 0.000000 0.000000 0.000000 
-4.085824 17.328617 0.643451 -9.629809 -75.022005 20.960149 -10.232752 -0.622290 0.615474 -7.618747 -8.384090 -16.012586 -1.397133 -0.325734 12.912382 1.381053 7.991058 -6.374880 0.234100 0.000000 -33.999900 9.928742 0.330163 -4.154112 7.281173 -9.277767 -38.482044 -0.758865 -4.616553 60.586939 -2.139535 -9.111184 22.356026 -3.979400 -0.000000 -76.900100 -8.477775 -1.373702 6.642616 -2.937564 -0.985236 -1.829730 -8.449004 -1.032672 -0.712834 10.935902 -0.263749 0.499506 -4.172992 -0.366599 1.875381 0.000000 0.000000 0.000000 -3.250724 -7.984072 2.656839 -55.699969 -19.597556 11.307344 -4.082548 -17.803443 0.002439 2.975832 -2.945034 -0.081562 -0.119147 0.099438 0.000000 0.000000 0.000000 0.000000 0.000000 0.000000 0.000000 18.241409 -0.885185 0.726461 73.190060 3.296022 -1.818513 2.353211 21.483306 0.006302 -2.095820 11.421842 -0.215621 0.045736 -0.097631 0.000000 0.000000 0.000000 0.000000 0.000000 0.000000 0.000000 
-4.063460 17.329352 0.671555 -10.882729 -74.714890 21.839008 -10.276528 -0.696847 0.518895 -7.325439 -8.402922 -15.720782 -1.346929 -0.289985 13.241327 1.387069 8.005736 -6.526484 0.204401 -0.000000 -34.046000 9.908308 0.473071 -4.253099 7.358373 -9.370656 -39.915261 -0.869315 -4.753586 62.823792 -2.203599 -8.991015 24.440340 -4.100800 -0.000000 -76.022500 -8.222954 -1.428196 6.888698 -2.892826 -1.048634 -1.780136 -8.495902 -1.091919 -0.733715 10.953721 -0.225130 0.584206 -4.180131 -0.367057 1.895293 0.000000 0.000000 0.000000 -3.349806 -8.191747 2.682702 -55.496213 -20.229165 11.555189 -4.062733 -18.117301 0.002322 3.056618 -3.041191 -0.086448 -0.119660 0.103792 0.000000 0.000000 0.000000 0.000000 0.000000 0.000000 0.000000 18.276059 -0.902127 0.735959 73.231583 2.979308 -2.155976 2.368949 21.212661 0.006402 -2.011046 11.385789 -0.206328 0.045417 -0.095776 0.000000 0.000000 0.000000 0.000000 0.000000 0.000000 0.000000 
